# xmcd CD database file
#
# Track frame offsets:
#	150
#	21837
#	43122
#	64807
#
# Disc length: 1144 seconds
#
# Revision: 1
# Processed by: cddbd v1.5.1PL0 Copyright (c) Steve Scherf et al.
# Submitted via: CDex 1.51
#
DISCID=30047604
DTITLE=EXILE - HERO
DYEAR=2004
DGENRE=JPop
TTITLE0=HERO
TTITLE1=FIND YOU
TTITLE2=HERO(instrumental)
TTITLE3=FIND YOU(instrumental)
EXTD=YEAR: 2004
EXTT0=
EXTT1=
EXTT2=
EXTT3=
PLAYORDER=
